<?xml version="1.0" encoding="UTF-8"?>
<svg version="1.1" xmlns="http://www.w3.org/2000/svg" width="800" height="181">
<path d="M0 0 C0.98209442 -0.02716095 1.96418884 -0.0543219 2.9760437 -0.08230591 C3.85752579 -0.11545395 4.73900787 -0.14860199 5.64720154 -0.18275452 C8.40263673 0.17729146 9.23335358 0.98460976 10.93869019 3.1166687 C10.39365341 3.20134903 9.84861664 3.28602936 9.2870636 3.37327576 C-17.04042153 7.47349283 -43.19219612 11.66445725 -69.06130981 18.1166687 C-70.28736938 18.41508667 -71.51342896 18.71350464 -72.77664185 19.02096558 C-105.1493906 26.91492622 -136.71225039 37.16246478 -168.18630981 48.05026245 C-168.96849884 48.32009949 -169.75068787 48.58993652 -170.55657959 48.86795044 C-173.91766327 50.02749037 -177.27592331 51.19262378 -180.62771606 52.37887573 C-181.657677 52.73707397 -182.68763794 53.09527222 -183.74880981 53.46432495 C-184.598302 53.76475708 -185.44779419 54.06518921 -186.32302856 54.37472534 C-194.0056355 56.45634468 -202.09479137 56.45176371 -210.00053215 56.84140205 C-212.23534658 56.95169846 -214.46993954 57.06580268 -216.70451355 57.18086243 C-219.92118668 57.34628729 -223.13791789 57.51049813 -226.35470581 57.67367554 C-255.17234668 59.13797959 -283.96305179 60.80333506 -312.74221802 62.89718628 C-334.07793892 64.4328046 -334.07793892 64.4328046 -344.06130981 64.1166687 C-344.06130981 63.4566687 -344.06130981 62.7966687 -344.06130981 62.1166687 C-335.68090181 59.62273374 -327.29850425 57.13562073 -318.91375351 54.65632534 C-315.01701979 53.50388358 -311.12091237 52.34942338 -307.22634888 51.18966675 C-289.6015341 45.94290528 -271.9812924 40.96730277 -254.1111145 36.61203003 C-246.97055378 34.86696174 -239.91363406 32.87310974 -232.85412598 30.82946777 C-180.74522047 15.83567299 -126.21591372 5.58007079 -72.06130981 2.1166687 C-70.83146362 2.0348938 -69.60161743 1.9531189 -68.33450317 1.86886597 C-56.06999512 1.09579887 -43.80338651 0.8302954 -31.51809692 0.61398315 C-28.10469488 0.55383186 -24.69140674 0.48897318 -21.27810669 0.42330933 C-19.07173152 0.38202351 -16.86535145 0.34099862 -14.65896606 0.30026245 C-13.15548363 0.27215736 -13.15548363 0.27215736 -11.62162781 0.2434845 C-9.71083428 0.21013339 -7.79993634 0.18222065 -5.88897705 0.16033936 C-3.92549139 0.13001517 -1.96229528 0.07478447 0 0 Z " fill="#000000" transform="translate(344.0613098144531,116.88333129882813)"/>
<path d="M0 0 C20.76441618 17.28585581 35.05794244 43.00720091 37.59057617 70.01879883 C38.18232317 77.92793126 38.18232317 77.92793126 35.80126953 81.49951172 C35.24439453 79.79794922 35.24439453 79.79794922 34.67626953 78.06201172 C34.25861328 76.82837891 34.25861328 76.82837891 33.83251953 75.56982422 C33.28415001 73.93717859 32.73872101 72.3034221 32.21533203 70.66259766 C22.33131067 39.68351218 2.8736338 17.04347344 -25.49951172 1.31591797 C-52.86646001 -12.63745448 -85.40186201 -14.16597936 -114.38623047 -4.81298828 C-143.12653085 5.04490067 -168.55673632 26.21552342 -182.19873047 53.49951172 C-186.40334878 62.57318184 -189.2535836 71.67413814 -191.46289062 81.41772461 C-191.95061289 83.46875192 -192.56438402 85.48899173 -193.19873047 87.49951172 C-194.68373047 87.99451172 -194.68373047 87.99451172 -196.19873047 88.49951172 C-197.84341987 60.29613413 -185.48683402 32.36756816 -167.19873047 11.49951172 C-166.44333984 10.63068359 -165.68794922 9.76185547 -164.90966797 8.86669922 C-148.99364461 -8.14320891 -128.43473202 -18.55286477 -106.19873047 -24.50048828 C-105.08111328 -24.82017578 -103.96349609 -25.13986328 -102.81201172 -25.46923828 C-66.43329424 -34.42910484 -28.44779938 -23.08356376 0 0 Z " fill="#000000" transform="translate(265.19873046875,27.50048828125)"/>
<path d="M0 0 C5.80580503 6.07584248 7.39470898 11.52980173 7.375 19.8125 C7.37258301 20.86981323 7.37258301 20.86981323 7.37011719 21.94848633 C7.18354436 29.89703754 4.66115623 36.33884377 -1 42 C-4.92005816 44.38612236 -8.40095725 45.81964538 -13 46 C-16.82127696 45.04306431 -20.47574232 43.76212884 -24 42 C-24 48.93 -24 55.86 -24 63 C-27.96 63 -31.92 63 -36 63 C-36 41.55 -36 20.1 -36 -2 C-32.7 -2 -29.4 -2 -26 -2 C-25.01 -0.515 -25.01 -0.515 -24 1 C-22.9275 0.360625 -21.855 -0.27875 -20.75 -0.9375 C-13.81781233 -4.83944994 -6.5150811 -5.10641491 0 0 Z M-24 11 C-24.3062656 14.44960678 -24.27834009 17.91346231 -24.3125 21.375 C-24.34150391 22.34695312 -24.37050781 23.31890625 -24.40039062 24.3203125 C-24.40876953 25.25359375 -24.41714844 26.186875 -24.42578125 27.1484375 C-24.44036377 28.00614746 -24.45494629 28.86385742 -24.4699707 29.74755859 C-24.19022771 32.14449369 -24.19022771 32.14449369 -22.18823242 33.74853516 C-19.07979872 35.5262693 -16.56580212 35.87488414 -13 36 C-9.53595821 34.66162022 -8.30020114 33.49936606 -6.38671875 30.31640625 C-3.87111356 24.30021242 -3.85161162 17.08075114 -5.62109375 10.79296875 C-6.88044381 8.49255598 -8.39924875 7.23135314 -10.8359375 6.29296875 C-16.44191645 5.14385046 -19.94255358 6.94255358 -24 11 Z " fill="#000000" transform="translate(569,48)"/>
<path d="M0 0 C0.804375 0.598125 1.60875 1.19625 2.4375 1.8125 C1.96547514 6.06072374 -0.52905518 8.01239709 -3.5625 10.8125 C-4.5525 10.173125 -5.5425 9.53375 -6.5625 8.875 C-10.68593908 6.54254961 -13.80938132 5.88794633 -18.5625 5.8125 C-21.98224919 7.10244793 -21.98224919 7.10244793 -24.5625 8.8125 C-25.23262422 11.5984186 -25.23262422 11.5984186 -24.5625 14.8125 C-20.54261678 18.86892762 -14.61599147 20.61390914 -9.4375 22.6875 C-3.38705844 25.19716868 -0.16408654 27.35866895 3.4375 32.8125 C5.10825165 37.82475494 5.50281518 43.11706892 3.53125 48.10546875 C0.39130522 53.46954109 -3.10416583 56.83889273 -9.2265625 58.5625 C-20.10529828 60.81133427 -28.28503335 59.07531845 -37.76171875 53.4453125 C-38.35597656 52.90648437 -38.95023437 52.36765625 -39.5625 51.8125 C-39.5625 46.50770066 -38.0262943 45.62267373 -34.5625 41.8125 C-32.5894158 42.7773121 -30.65891611 43.75481874 -28.7734375 44.8828125 C-23.54894965 47.88411403 -18.55434538 48.94361367 -12.5625 47.8125 C-10.23144636 46.65828494 -10.23144636 46.65828494 -8.5625 44.8125 C-8.08192285 42.7636352 -8.08192285 42.7636352 -8.3125 40.625 C-8.395 39.366875 -8.4775 38.10875 -8.5625 36.8125 C-11.95617729 35.45050925 -11.95617729 35.45050925 -15.36230469 34.12011719 C-24.72924145 30.48919298 -32.81866569 27.30016863 -37.5625 17.8125 C-38.38135561 11.51900977 -37.83836057 6.72581955 -34.125 1.50390625 C-25.10592994 -8.25923709 -10.29307862 -6.78956594 0 0 Z " fill="#000000" transform="translate(397.5625,34.1875)"/>
<path d="M0 0 C5.84408991 5.84408991 6.16610445 12.70036306 6.1953125 20.5625 C6.18950852 23.37530754 6.1588251 26.18741121 6.125 29 C6.11495155 30.45702511 6.10582899 31.91405691 6.09765625 33.37109375 C6.07578711 36.91420329 6.04135977 40.45705812 6 44 C4.37581255 44.08090971 2.75048255 44.13914995 1.125 44.1875 C0.22007812 44.22230469 -0.68484375 44.25710937 -1.6171875 44.29296875 C-2.79667969 44.14794922 -2.79667969 44.14794922 -4 44 C-4.66 43.01 -5.32 42.02 -6 41 C-7.03125 41.639375 -8.0625 42.27875 -9.125 42.9375 C-13.84306696 45.59436737 -17.71264233 46.41691985 -23.0625 45.375 C-27.10112756 44.23768534 -29.35223697 42.28964498 -32 39 C-33.75952352 33.72142945 -33.80162954 28.89476074 -31.625 23.75 C-24.63082834 16.42277255 -15.73008056 15.02181097 -6 14 C-7.68807908 9.76915097 -7.68807908 9.76915097 -11 7 C-16.68495079 6.55412151 -19.97340721 7.6800341 -25 10 C-25.99 10 -26.98 10 -28 10 C-29.5625 7.1875 -29.5625 7.1875 -31 4 C-30 1 -30 1 -27.92578125 -0.1328125 C-18.8431307 -3.58123289 -8.41111056 -6.72888845 0 0 Z M-20.5625 26.875 C-22.26575156 28.93567743 -22.26575156 28.93567743 -21.875 31.625 C-21.13532087 34.14405125 -21.13532087 34.14405125 -19 36 C-14.93727792 36.46877562 -12.37028143 36.14811257 -8.5625 34.625 C-5.5841249 31.5739816 -5.63079624 30.84214295 -5.625 26.75 C-5.72122021 25.16465741 -5.83718662 23.5798928 -6 22 C-11.64717782 22 -16.00150918 23.53768965 -20.5625 26.875 Z " fill="#000000" transform="translate(693,48)"/>
<path d="M0 0 C5.84408991 5.84408991 6.16610445 12.70036306 6.1953125 20.5625 C6.18950852 23.37530754 6.1588251 26.18741121 6.125 29 C6.11495155 30.45702511 6.10582899 31.91405691 6.09765625 33.37109375 C6.07578711 36.91420329 6.04135977 40.45705812 6 44 C4.37581255 44.08090971 2.75048255 44.13914995 1.125 44.1875 C0.22007812 44.22230469 -0.68484375 44.25710937 -1.6171875 44.29296875 C-2.79667969 44.14794922 -2.79667969 44.14794922 -4 44 C-4.66 43.01 -5.32 42.02 -6 41 C-7.03125 41.639375 -8.0625 42.27875 -9.125 42.9375 C-13.84306696 45.59436737 -17.71264233 46.41691985 -23.0625 45.375 C-27.10112756 44.23768534 -29.35223697 42.28964498 -32 39 C-33.75952352 33.72142945 -33.80162954 28.89476074 -31.625 23.75 C-24.63082834 16.42277255 -15.73008056 15.02181097 -6 14 C-7.68807908 9.76915097 -7.68807908 9.76915097 -11 7 C-16.68495079 6.55412151 -19.97340721 7.6800341 -25 10 C-25.99 10 -26.98 10 -28 10 C-29.5625 7.1875 -29.5625 7.1875 -31 4 C-30 1 -30 1 -27.92578125 -0.1328125 C-18.8431307 -3.58123289 -8.41111056 -6.72888845 0 0 Z M-20.5625 26.875 C-22.26575156 28.93567743 -22.26575156 28.93567743 -21.875 31.625 C-21.13532087 34.14405125 -21.13532087 34.14405125 -19 36 C-14.93727792 36.46877562 -12.37028143 36.14811257 -8.5625 34.625 C-5.5841249 31.5739816 -5.63079624 30.84214295 -5.625 26.75 C-5.72122021 25.16465741 -5.83718662 23.5798928 -6 22 C-11.64717782 22 -16.00150918 23.53768965 -20.5625 26.875 Z " fill="#000000" transform="translate(509,48)"/>
<path d="M0 0 C4.2916005 3.55589756 5.38920187 7.78994686 6.00439453 13.17504883 C6.42327927 19.20866462 6.28762161 25.26748798 6.25 31.3125 C6.24497533 32.72135258 6.24041413 34.13020689 6.23632812 35.5390625 C6.2246003 38.96358638 6.20818691 42.38802047 6.1875 45.8125 C2.2275 45.8125 -1.7325 45.8125 -5.8125 45.8125 C-5.83231934 44.86407227 -5.85213867 43.91564453 -5.87255859 42.93847656 C-5.95075761 39.41217636 -6.03745366 35.88629639 -6.12988281 32.36035156 C-6.16811266 30.83569342 -6.202976 29.31094693 -6.234375 27.78613281 C-6.28015662 25.59147619 -6.33812766 23.3974246 -6.3984375 21.203125 C-6.40998871 20.5238092 -6.42153992 19.84449341 -6.43344116 19.14459229 C-6.54424834 15.57348973 -6.78420759 12.81228117 -8.8125 9.8125 C-10.51541681 8.69644923 -10.51541681 8.69644923 -12.8125 8.8125 C-16.3872262 10.10679742 -19.10980077 11.10980077 -21.8125 13.8125 C-22.05751495 16.24426397 -22.18574921 18.57114884 -22.2265625 21.0078125 C-22.24592865 21.71525604 -22.2652948 22.42269958 -22.2852478 23.15158081 C-22.34507652 25.41343085 -22.39144101 27.6753317 -22.4375 29.9375 C-22.47567686 31.4700744 -22.51472842 33.00262728 -22.5546875 34.53515625 C-22.65078039 38.29409624 -22.73479849 42.05313668 -22.8125 45.8125 C-26.7725 45.8125 -30.7325 45.8125 -34.8125 45.8125 C-34.8125 30.6325 -34.8125 15.4525 -34.8125 -0.1875 C-31.5125 -0.1875 -28.2125 -0.1875 -24.8125 -0.1875 C-24.1525 1.1325 -23.4925 2.4525 -22.8125 3.8125 C-22.131875 3.19375 -21.45125 2.575 -20.75 1.9375 C-14.11923054 -2.85922684 -7.43010732 -3.13715643 0 0 Z " fill="#000000" transform="translate(452.8125,46.1875)"/>
<path d="M0 0 C6.27716541 8.0942396 5 11.36685131 5 23 C-4.57 23 -14.14 23 -24 23 C-21.36541836 30.06625046 -21.36541836 30.06625046 -16 34 C-10.3416972 34.74750154 -5.28856963 34.22676616 0 32 C4 37.75 4 37.75 4 40 C-5.34844148 44.65258083 -12.83736622 46.28791093 -23 43 C-28.79153126 40.41850351 -31.51125217 36.29255291 -34.05859375 30.609375 C-36.67785423 23.3493501 -36.49434416 16.29996135 -34 9 C-30.41369097 1.71316828 -26.33358273 -2.17535328 -18.625 -4.8125 C-11.42113504 -5.32706178 -5.87901552 -4.26516812 0 0 Z M-23 10 C-23.33 11.65 -23.66 13.3 -24 15 C-17.73 15 -11.46 15 -5 15 C-5.31885384 8.50669817 -5.31885384 8.50669817 -7.5625 6.0625 C-14.18436887 3.17604434 -18.77922447 4.244397 -23 10 Z " fill="#000000" transform="translate(791,49)"/>
<path d="M0 0 C0.66 0.33 1.32 0.66 2 1 C1.34 3.97 0.68 6.94 0 10 C-2.97 10 -5.94 10 -9 10 C-10.14814997 12.29629994 -10.30769809 14.07698086 -10.5625 16.625 C-10.706875 18.06875 -10.85125 19.5125 -11 21 C-8.03 21 -5.06 21 -2 21 C-2 23.97 -2 26.94 -2 30 C-4.97 30 -7.94 30 -11 30 C-11 42.21 -11 54.42 -11 67 C-14.96 67 -18.92 67 -23 67 C-23 54.79 -23 42.58 -23 30 C-24.98 30 -26.96 30 -29 30 C-29 27.03 -29 24.06 -29 21 C-27.02 21 -25.04 21 -23 21 C-23.0928125 19.2984375 -23.0928125 19.2984375 -23.1875 17.5625 C-23.16155649 12.69376784 -22.29802398 8.32368956 -20 4 C-13.99933272 -1.00055606 -7.43276751 -2.47758917 0 0 Z " fill="#000000" transform="translate(618,25)"/>
<path d="M0 0 C3.96 0 7.92 0 12 0 C12.33 19.14 12.66 38.28 13 58 C13.99 58.33 14.98 58.66 16 59 C17.4783226 61.95664519 17.06032783 64.74229737 17 68 C12.07255174 69.20181665 8.70219344 68.95185388 4 67 C-0.04151065 62.15018722 -0.12730436 56.26852559 -0.11352539 50.17822266 C-0.11344986 49.05751373 -0.11337433 47.93680481 -0.11329651 46.78213501 C-0.10813522 45.58817108 -0.10297394 44.39420715 -0.09765625 43.1640625 C-0.0962413 41.92957367 -0.09482635 40.69508484 -0.09336853 39.42318726 C-0.08778272 35.49043325 -0.07523275 31.55773672 -0.0625 27.625 C-0.05691912 24.95442792 -0.05292058 22.28385637 -0.04882812 19.61328125 C-0.03781792 13.07549878 -0.02056297 6.53775912 0 0 Z " fill="#000000" transform="translate(629,25)"/>
<path d="M0 0 C-0.66 3.3 -1.32 6.6 -2 10 C-3.381875 10.061875 -4.76375 10.12375 -6.1875 10.1875 C-9.961317 10.59162529 -10.91077435 10.92750416 -14 13.4375 C-17.07110141 17.37234868 -17.16517451 19.57001964 -17.31640625 24.5390625 C-17.35830078 25.84101562 -17.40019531 27.14296875 -17.44335938 28.484375 C-17.48317299 29.86458045 -17.52288522 31.24478883 -17.5625 32.625 C-17.60569407 34.01303415 -17.64930865 35.40105528 -17.69335938 36.7890625 C-17.79972 40.19260256 -17.90174714 43.59621778 -18 47 C-21.96 47 -25.92 47 -30 47 C-30 31.82 -30 16.64 -30 1 C-26.7 1 -23.4 1 -20 1 C-19.34 2.65 -18.68 4.3 -18 6 C-17.278125 5.21625 -16.55625 4.4325 -15.8125 3.625 C-10.44181304 -1.38764116 -6.9150297 -1.17203893 0 0 Z " fill="#000000" transform="translate(747,45)"/>
<path d="M0 0 C3.07851438 0.51762631 5.29972785 -0.63778009 8.20703125 -1.62890625 C11.01953125 -0.44140625 11.01953125 -0.44140625 13.20703125 1.37109375 C14.12891586 4.13674757 14.32488347 5.75393077 14.3046875 8.6015625 C14.30146484 9.40400391 14.29824219 10.20644531 14.29492188 11.03320312 C14.28654297 11.86658203 14.27816406 12.69996094 14.26953125 13.55859375 C14.26501953 14.40357422 14.26050781 15.24855469 14.25585938 16.11914062 C14.24408528 18.2031553 14.22615015 20.28713352 14.20703125 22.37109375 C12.55703125 22.37109375 10.90703125 22.37109375 9.20703125 22.37109375 C8.87703125 16.43109375 8.54703125 10.49109375 8.20703125 4.37109375 C6.55703125 4.37109375 4.90703125 4.37109375 3.20703125 4.37109375 C1.14780723 6.43031777 1.79275546 10.58817499 1.64453125 13.43359375 C1.60134766 14.19220703 1.55816406 14.95082031 1.51367188 15.73242188 C1.40729492 17.61174813 1.30663191 19.49139619 1.20703125 21.37109375 C-0.44296875 21.70109375 -2.09296875 22.03109375 -3.79296875 22.37109375 C-4.12296875 16.43109375 -4.45296875 10.49109375 -4.79296875 4.37109375 C-6.44296875 4.37109375 -8.09296875 4.37109375 -9.79296875 4.37109375 C-11.85219277 6.43031777 -11.20724454 10.58817499 -11.35546875 13.43359375 C-11.39865234 14.19220703 -11.44183594 14.95082031 -11.48632812 15.73242188 C-11.59270508 17.61174813 -11.69336809 19.49139619 -11.79296875 21.37109375 C-13.44296875 21.70109375 -15.09296875 22.03109375 -16.79296875 22.37109375 C-16.79296875 14.78109375 -16.79296875 7.19109375 -16.79296875 -0.62890625 C-14.31796875 -0.13390625 -14.31796875 -0.13390625 -11.79296875 0.37109375 C-11.05046875 0.02046875 -10.30796875 -0.33015625 -9.54296875 -0.69140625 C-5.88715504 -1.93770638 -3.64951483 -0.97441441 0 0 Z " fill="#000000" transform="translate(722.79296875,127.62890625)"/>
<path d="M0 0 C3.07851438 0.51762631 5.29972785 -0.63778009 8.20703125 -1.62890625 C11.01953125 -0.44140625 11.01953125 -0.44140625 13.20703125 1.37109375 C14.12891586 4.13674757 14.32488347 5.75393077 14.3046875 8.6015625 C14.30146484 9.40400391 14.29824219 10.20644531 14.29492188 11.03320312 C14.28654297 11.86658203 14.27816406 12.69996094 14.26953125 13.55859375 C14.26501953 14.40357422 14.26050781 15.24855469 14.25585938 16.11914062 C14.24408528 18.2031553 14.22615015 20.28713352 14.20703125 22.37109375 C12.55703125 22.37109375 10.90703125 22.37109375 9.20703125 22.37109375 C8.87703125 16.43109375 8.54703125 10.49109375 8.20703125 4.37109375 C6.55703125 4.37109375 4.90703125 4.37109375 3.20703125 4.37109375 C1.14780723 6.43031777 1.79275546 10.58817499 1.64453125 13.43359375 C1.60134766 14.19220703 1.55816406 14.95082031 1.51367188 15.73242188 C1.40729492 17.61174813 1.30663191 19.49139619 1.20703125 21.37109375 C-0.44296875 21.70109375 -2.09296875 22.03109375 -3.79296875 22.37109375 C-4.12296875 16.43109375 -4.45296875 10.49109375 -4.79296875 4.37109375 C-6.44296875 4.37109375 -8.09296875 4.37109375 -9.79296875 4.37109375 C-11.85219277 6.43031777 -11.20724454 10.58817499 -11.35546875 13.43359375 C-11.39865234 14.19220703 -11.44183594 14.95082031 -11.48632812 15.73242188 C-11.59270508 17.61174813 -11.69336809 19.49139619 -11.79296875 21.37109375 C-13.44296875 21.70109375 -15.09296875 22.03109375 -16.79296875 22.37109375 C-16.79296875 14.78109375 -16.79296875 7.19109375 -16.79296875 -0.62890625 C-14.31796875 -0.13390625 -14.31796875 -0.13390625 -11.79296875 0.37109375 C-11.05046875 0.02046875 -10.30796875 -0.33015625 -9.54296875 -0.69140625 C-5.88715504 -1.93770638 -3.64951483 -0.97441441 0 0 Z " fill="#000000" transform="translate(538.79296875,127.62890625)"/>
<path d="M0 0 C1.65 0 3.3 0 5 0 C5 3.63 5 7.26 5 11 C6.03125 10.608125 7.0625 10.21625 8.125 9.8125 C12 9 12 9 15.3125 10.125 C18.11881508 12.08289424 18.7818911 12.91561417 20 16 C20.7833371 21.59526499 20.24333146 26.25083608 17 31 C13.82470757 33.40884253 10.88335547 33.16524917 7 33 C6.01 33 5.02 33 4 33 C2.68 33 1.36 33 0 33 C0 22.11 0 11.22 0 0 Z M5 16 C4.64251135 18.59774919 4.64251135 18.59774919 4.6875 21.5 C4.67074219 22.4796875 4.65398437 23.459375 4.63671875 24.46875 C4.75660156 25.3040625 4.87648438 26.139375 5 27 C7.75698184 29.28138945 7.75698184 29.28138945 10.5625 28.8125 C13.33255117 28.16627558 13.33255117 28.16627558 15 25 C15.31478577 23.04785375 15.31478577 23.04785375 15.25 21 C15.25515625 20.319375 15.2603125 19.63875 15.265625 18.9375 C15.09917603 16.67583993 15.09917603 16.67583993 13 14 C8.49434891 13.44745736 8.49434891 13.44745736 5 16 Z " fill="#000000" transform="translate(431,117)"/>
<path d="M0 0 C2.3125 1.5 2.3125 1.5 4 4 C4.62241211 7.03360522 4.81715193 9.89158289 5 13 C0.38 13.33 -4.24 13.66 -9 14 C-8.01 15.32 -7.02 16.64 -6 18 C-2.54429807 18.35996895 -0.29975529 18.09991843 3 17 C3.33 18.32 3.66 19.64 4 21 C0.34387956 23.33991708 -2.73207376 23.37437949 -7 23 C-10.5386994 21.34860695 -11.81070153 20.28394771 -14 17 C-15.41501375 11.33994502 -14.75452212 8.11554109 -12 3 C-8.57546533 -1.28066834 -5.12015136 -1.3584075 0 0 Z M-5 3 C-7.79197732 5.29182272 -7.79197732 5.29182272 -10 8 C-10 8.33 -10 8.66 -10 9 C-6.7 9 -3.4 9 0 9 C-0.33 7.35 -0.66 5.7 -1 4 C-2.72476911 3.04497842 -2.72476911 3.04497842 -5 3 Z " fill="#000000" transform="translate(605,127)"/>
<path d="M0 0 C3.54169405 3.3552891 4.80544047 6.13601179 5 11 C4.30601196 15.02513064 3.56691844 17.3497112 0.875 20.4375 C-2.90686071 22.49285908 -5.78768165 22.81006122 -10 22 C-13.10617288 20.44691356 -14.49979163 19.18856852 -15.8515625 15.9765625 C-16.97153755 12.02291562 -17.3633579 8.98983636 -15.8125 5.125 C-13.89587304 1.82047076 -12.71228331 -0.20501132 -9.25 -1.8125 C-5.75501844 -2.10374846 -3.24765731 -1.27586537 0 0 Z M-10.9375 5.0625 C-12.30258643 8.83656247 -12.00096139 11.13914892 -11 15 C-9.91325006 17.08984231 -9.91325006 17.08984231 -8 18 C-5.43810155 18.15474612 -5.43810155 18.15474612 -3 17 C-0.28933585 13.92791396 0.0220612 12.43387021 -0.1875 8.3125 C-0.71034493 4.9441206 -0.71034493 4.9441206 -3 3 C-6.74076284 2.44286511 -8.28446285 2.23829916 -10.9375 5.0625 Z " fill="#000000" transform="translate(696,128)"/>
<path d="M0 0 C1.65 0 3.3 0 5 0 C6.98 4.95 8.96 9.9 11 15 C12.65 10.05 14.3 5.1 16 0 C17.65 0 19.3 0 21 0 C19.80714496 3.77711973 18.59821645 7.54867614 17.37451172 11.31591797 C16.75812925 13.2248241 16.15436632 15.13779013 15.55078125 17.05078125 C15.15761719 18.25605469 14.76445312 19.46132812 14.359375 20.703125 C14.00327148 21.81333008 13.64716797 22.92353516 13.28027344 24.06738281 C11.91669235 27.19082599 10.64394417 28.87354039 8 31 C4.75 31.75 4.75 31.75 2 32 C1.67 30.68 1.34 29.36 1 28 C2.2065625 27.5359375 2.2065625 27.5359375 3.4375 27.0625 C5.89080405 26.23664655 5.89080405 26.23664655 7 25 C7.62911527 19.37291341 5.72917238 15.26778958 3.5 10.25 C2.84081248 8.7356503 2.18442033 7.22007976 1.53125 5.703125 C1.23798828 5.03958008 0.94472656 4.37603516 0.64257812 3.69238281 C0 2 0 2 0 0 Z " fill="#000000" transform="translate(452,127)"/>
<path d="M0 0 C2.1271652 1.65197802 2.91892185 2.4818554 3.34057617 5.17651367 C3.32486572 5.99869385 3.30915527 6.82087402 3.29296875 7.66796875 C3.28330078 8.56064453 3.27363281 9.45332031 3.26367188 10.37304688 C3.23853516 11.30181641 3.21339844 12.23058594 3.1875 13.1875 C3.16719727 14.59805664 3.16719727 14.59805664 3.14648438 16.03710938 C3.11113096 18.35865038 3.06178674 20.67903653 3 23 C1.68 23 0.36 23 -1 23 C-1.06058594 21.86820313 -1.12117187 20.73640625 -1.18359375 19.5703125 C-1.26799917 18.08852855 -1.35264717 16.6067584 -1.4375 15.125 C-1.47681641 14.37863281 -1.51613281 13.63226563 -1.55664062 12.86328125 C-1.71573624 8.80013136 -1.71573624 8.80013136 -3 5 C-4.66611905 4.957279 -6.33382885 4.95936168 -8 5 C-10.05922402 7.05922402 -9.41427579 11.21708124 -9.5625 14.0625 C-9.60568359 14.82111328 -9.64886719 15.57972656 -9.69335938 16.36132812 C-9.79973633 18.24065438 -9.90039934 20.12030244 -10 22 C-11.65 22.33 -13.3 22.66 -15 23 C-15 15.41 -15 7.82 -15 0 C-13.68 0 -12.36 0 -11 0 C-11 0.66 -11 1.32 -11 2 C-10.113125 1.484375 -9.22625 0.96875 -8.3125 0.4375 C-4.75943671 -1.10439539 -3.55766854 -1.34614485 0 0 Z " fill="#000000" transform="translate(641,127)"/>
<path d="M0 0 C1.875 1.5625 1.875 1.5625 3 3 C2.67 3.66 2.34 4.32 2 5 C0.88625 4.814375 -0.2275 4.62875 -1.375 4.4375 C-4.82568861 3.68319343 -4.82568861 3.68319343 -7 5 C-7 5.66 -7 6.32 -7 7 C-6.28972656 7.29132813 -5.57945312 7.58265625 -4.84765625 7.8828125 C2.62393162 11.21516165 2.62393162 11.21516165 4.4375 15 C4 18 4 18 2.0625 20.875 C-2.10185346 23.76455138 -4.00146804 23.55539244 -9 23 C-11.5 22 -11.5 22 -13 21 C-12.67 19.68 -12.34 18.36 -12 17 C-8.7 17.33 -5.4 17.66 -2 18 C-2 17.01 -2 16.02 -2 15 C-2.55429687 14.73445312 -3.10859375 14.46890625 -3.6796875 14.1953125 C-4.40414062 13.84210938 -5.12859375 13.48890625 -5.875 13.125 C-6.59429688 12.77695313 -7.31359375 12.42890625 -8.0546875 12.0703125 C-10 11 -10 11 -12 9 C-12.5565371 3.76855124 -12.5565371 3.76855124 -10.6875 1.1875 C-6.9861385 -1.4171618 -4.22069345 -1.05517336 0 0 Z " fill="#000000" transform="translate(570,127)"/>
<path d="M0 0 C1.375 2.0625 1.375 2.0625 2 4 C-1.38018531 5.04005702 -4.4780279 5.08004482 -8 5 C-10.02892674 9.05785349 -10.16885197 11.6168051 -9 16 C-7.19046912 18.25550736 -7.19046912 18.25550736 -4.625 18.125 C-3.75875 18.08375 -2.8925 18.0425 -2 18 C-0.68 18 0.64 18 2 18 C2 18.99 2 19.98 2 21 C-1.71207624 23.47471749 -4.69738943 23.64707229 -9 23 C-12.10617288 21.44691356 -13.49979163 20.18856852 -14.8515625 16.9765625 C-15.96254805 13.05464967 -16.36362181 9.97742236 -14.875 6.125 C-11.22258658 0.03764431 -6.95010561 -1.92236964 0 0 Z " fill="#000000" transform="translate(676,127)"/>
<path d="M0 0 C-0.33 1.32 -0.66 2.64 -1 4 C-2.65 4 -4.3 4 -6 4 C-6.33 5.98 -6.66 7.96 -7 10 C-5.35 10 -3.7 10 -2 10 C-2 11.32 -2 12.64 -2 14 C-3.65 14 -5.3 14 -7 14 C-7 20.27 -7 26.54 -7 33 C-8.32 33 -9.64 33 -11 33 C-11 26.73 -11 20.46 -11 14 C-11.99 14 -12.98 14 -14 14 C-14 12.68 -14 11.36 -14 10 C-13.01 10 -12.02 10 -11 10 C-11.04125 8.906875 -11.0825 7.81375 -11.125 6.6875 C-11 3 -11 3 -9 0 C-5.52176885 -1.15941038 -3.54104422 -0.70820884 0 0 Z " fill="#000000" transform="translate(498,117)"/>
<path d="M0 0 C1.32 0 2.64 0 4 0 C4 1.98 4 3.96 4 6 C5.98 6 7.96 6 10 6 C10 7.32 10 8.64 10 10 C8.02 10 6.04 10 4 10 C4.14076315 11.9587043 4.2877676 13.91696093 4.4375 15.875 C4.55931641 17.51082031 4.55931641 17.51082031 4.68359375 19.1796875 C4.83001703 21.94728971 4.83001703 21.94728971 6 24 C7.64363134 24.72159424 9.31050386 25.39351421 11 26 C10.67 26.99 10.34 27.98 10 29 C3.62063407 29.36109618 3.62063407 29.36109618 1.28125 28 C-0.75518944 24.82116771 -0.31160535 21.45610577 -0.1875 17.8125 C-0.16719727 16.68811523 -0.16719727 16.68811523 -0.14648438 15.54101562 C-0.11118539 13.69370233 -0.05737917 11.84675934 0 10 C-0.99 10 -1.98 10 -3 10 C-3 8.68 -3 7.36 -3 6 C-2.01 6 -1.02 6 0 6 C0 4.02 0 2.04 0 0 Z " fill="#000000" transform="translate(578,121)"/>
<path d="M0 0 C1.65 0 3.3 0 5 0 C5 9.57 5 19.14 5 29 C5.66 29 6.32 29 7 29 C7 30.32 7 31.64 7 33 C4.625 33.125 4.625 33.125 2 33 C0 31 0 31 -0.22705078 27.92724609 C-0.21657715 26.63898926 -0.20610352 25.35073242 -0.1953125 24.0234375 C-0.1924826 23.33819 -0.18965271 22.6529425 -0.18673706 21.94692993 C-0.17553281 19.75610973 -0.15042859 17.56569684 -0.125 15.375 C-0.11497048 13.8906309 -0.10584458 12.4062554 -0.09765625 10.921875 C-0.07559294 7.28111739 -0.04106176 3.64059844 0 0 Z " fill="#000000" transform="translate(511,117)"/>
<path d="M0 0 C1.65 0 3.3 0 5 0 C5 7.26 5 14.52 5 22 C3.35 22.33 1.7 22.66 0 23 C0 15.41 0 7.82 0 0 Z " fill="#000000" transform="translate(615,127)"/>
<path d="M0 0 C1.65 0 3.3 0 5 0 C5 7.26 5 14.52 5 22 C3.35 22.33 1.7 22.66 0 23 C0 15.41 0 7.82 0 0 Z " fill="#000000" transform="translate(499,127)"/>
<path d="M0 0 C1.32 0.66 2.64 1.32 4 2 C3.67 3.32 3.34 4.64 3 6 C1.68 6.33 0.36 6.66 -1 7 C-1.66 5.68 -2.32 4.36 -3 3 C-2.01 2.01 -1.02 1.02 0 0 Z " fill="#000000" transform="translate(653,143)"/>
<path d="M0 0 C1.65 0 3.3 0 5 0 C5.33 0.99 5.66 1.98 6 3 C5.01 4.485 5.01 4.485 4 6 C2.0625 5.6875 2.0625 5.6875 0 5 C-0.33 4.01 -0.66 3.02 -1 2 C-0.67 1.34 -0.34 0.68 0 0 Z " fill="#000000" transform="translate(615,118)"/>
<path d="M0 0 C1.65 0 3.3 0 5 0 C5.33 0.99 5.66 1.98 6 3 C5.01 4.485 5.01 4.485 4 6 C2.0625 5.6875 2.0625 5.6875 0 5 C-0.33 4.01 -0.66 3.02 -1 2 C-0.67 1.34 -0.34 0.68 0 0 Z " fill="#000000" transform="translate(499,118)"/>
</svg>
