<?xml version="1.0" encoding="UTF-8"?>
<svg version="1.1" xmlns="http://www.w3.org/2000/svg" width="400" height="341">
<path d="M0 0 C0.33 0.66 0.66 1.32 1 2 C-5.35260086 3.22295134 -11.72178869 4.28015003 -18.12109375 5.2265625 C-39.57881517 8.41982626 -60.68665396 12.43634895 -81.78692627 17.4732666 C-83.9829502 17.99594198 -86.18044642 18.51194962 -88.37841797 19.02636719 C-128.93076041 28.54776851 -168.37613245 41.50146829 -207.6328125 55.3359375 C-209.04542358 55.83311279 -209.04542358 55.83311279 -210.48657227 56.34033203 C-212.12142333 56.91766641 -213.75490236 57.49891279 -215.38647461 58.08544922 C-221.03445372 60.09611656 -226.1069364 61.09970836 -232.08764648 61.38549805 C-233.31437576 61.44636093 -234.54110504 61.50722382 -235.80500793 61.56993103 C-236.46349039 61.60093336 -237.12197285 61.63193569 -237.80040932 61.66387749 C-239.93071768 61.76453602 -242.06072388 61.87024816 -244.1907196 61.97731018 C-247.30232115 62.1336338 -250.41398099 62.2886963 -253.5256958 62.44274902 C-287.93458875 64.15230638 -322.29425024 66.37346932 -356.65470982 68.86798763 C-360.24021891 69.12803737 -363.82586544 69.38616731 -367.41150856 69.6443615 C-369.86925211 69.82260874 -372.32667966 70.00479767 -374.78410339 70.18739319 C-381.86573388 70.70506809 -388.89404119 71.15155607 -396 71 C-396 70.34 -396 69.68 -396 69 C-379.70688362 63.713209 -363.32408117 58.77751329 -346.875 54 C-345.66122681 53.6466156 -344.44745361 53.2932312 -343.19689941 52.92913818 C-329.05549124 48.81726757 -314.92792556 44.78863901 -300.60058594 41.37451172 C-292.43970764 39.41656421 -284.40308111 37.13104692 -276.35070801 34.77523804 C-198.68717677 12.08592662 -118.69961378 0.81643119 -37.89313507 -0.65069962 C-35.88696961 -0.68728174 -33.8808336 -0.72526121 -31.87469482 -0.76327515 C-28.08060181 -0.8324203 -24.28648583 -0.89257987 -20.4921875 -0.94921875 C-18.78017151 -0.98021667 -18.78017151 -0.98021667 -17.03356934 -1.01184082 C-11.26177742 -1.08579089 -5.68229034 -1.08767542 0 0 Z " fill="#000000" transform="translate(396,132)"/>
<path d="M0 0 C0.64582031 0.1556543 1.29164063 0.31130859 1.95703125 0.47167969 C19.8353023 4.95916155 36.62343988 13.55349411 51 25 C51.52916016 25.40718262 52.05832031 25.81436523 52.60351562 26.23388672 C60.17700679 32.06196096 66.31582684 38.33153367 72 46 C72.75023437 46.99773438 73.50046875 47.99546875 74.2734375 49.0234375 C87.74307464 67.64187792 99.0274309 92.4818016 97 116 C96.34 116.99 95.68 117.98 95 119 C93.5171433 114.60920354 92.05311082 110.21735338 90.7109375 105.78125 C84.5187106 85.68558953 74.41835307 69.31950014 60 54 C59.4225 53.34644531 58.845 52.69289062 58.25 52.01953125 C47.57063751 40.45816784 33.25385643 32.32193739 19 26 C17.93652344 25.51917969 16.87304688 25.03835937 15.77734375 24.54296875 C-14.48693853 11.87864835 -50.46355215 12.88511572 -80.6015625 25.08984375 C-92.74242752 30.25487377 -103.5979828 36.90631194 -114 45 C-114.88800293 45.68835937 -114.88800293 45.68835937 -115.79394531 46.390625 C-139.67569885 65.1760562 -153.52255611 91.91364525 -160.50537109 121.11328125 C-160.98046875 123.03125 -160.98046875 123.03125 -162 126 C-162.99 126.33 -163.98 126.66 -165 127 C-164.70629026 114.57607806 -163.25964792 103.00105269 -160 91 C-159.82484863 90.3493457 -159.64969727 89.69869141 -159.46923828 89.02832031 C-150.35877323 56.31155313 -126.78371547 30.03054032 -97.83081055 13.23217773 C-86.87171987 7.22038673 -74.96898891 3.4523443 -63 0 C-61.92830566 -0.31372559 -61.92830566 -0.31372559 -60.83496094 -0.63378906 C-41.91003211 -5.90095275 -18.96708521 -4.70406338 0 0 Z " fill="#000000" transform="translate(242,3)"/>
<path d="M0 0 C3.75488165 3.04449864 6.75669013 6.2075704 8.3125 10.875 C9.05698649 20.24489423 9.4812682 29.14055459 3.3125 36.875 C-0.28972522 40.36751278 -3.8828049 41.1147262 -8.8125 41.3125 C-12.83541476 41.1591877 -15.47139986 40.44788011 -18.6875 37.875 C-18.3575 38.865 -18.0275 39.855 -17.6875 40.875 C-17.61720879 43.44765818 -17.59379168 45.99141431 -17.625 48.5625 C-17.62951172 49.26439453 -17.63402344 49.96628906 -17.63867188 50.68945312 C-17.65043073 52.41800538 -17.66836546 54.14651365 -17.6875 55.875 C-20.9875 55.875 -24.2875 55.875 -27.6875 55.875 C-27.6875 37.395 -27.6875 18.915 -27.6875 -0.125 C-25.0475 -0.125 -22.4075 -0.125 -19.6875 -0.125 C-19.3575 0.865 -19.0275 1.855 -18.6875 2.875 C-18.2028125 2.58625 -17.718125 2.2975 -17.21875 2 C-11.34604655 -1.25257422 -6.51404162 -2.72680812 0 0 Z M-17.6875 10.875 C-18.01939614 13.9897823 -18.01230728 17.11979974 -18.0625 20.25 C-18.09988281 21.1265625 -18.13726562 22.003125 -18.17578125 22.90625 C-18.20910163 25.32753077 -18.17858642 27.50299793 -17.6875 29.875 C-14.80531819 32.47717085 -13.49464704 32.89147239 -9.625 32.8125 C-6.27183242 31.74234013 -4.86094523 30.61193103 -2.6875 27.875 C-0.71720276 21.96410829 -0.74679747 15.8957684 -3.375 10.25 C-5.48570317 7.78992291 -5.48570317 7.78992291 -8.0625 6.8125 C-11.73148481 6.89985678 -15.05094538 8.23844538 -17.6875 10.875 Z " fill="#000000" transform="translate(198.6875,235.125)"/>
<path d="M0 0 C2.39502121 1.20946863 4.70794127 2.47021252 6.98828125 3.8828125 C6.98828125 8.15108123 6.61214612 8.82163682 3.98828125 11.8828125 C1.83543759 11.42148886 0.07075911 10.92813191 -1.8671875 9.86328125 C-4.26670877 8.76623236 -5.94786154 8.58364426 -8.57421875 8.5703125 C-9.72083984 8.54517578 -9.72083984 8.54517578 -10.890625 8.51953125 C-13.07330893 8.74798185 -13.07330893 8.74798185 -14.8515625 10.08984375 C-16.21252557 11.874419 -16.21252557 11.874419 -16.17578125 14.35546875 C-14.40061942 18.20959528 -11.14841657 18.93069118 -7.38671875 20.3203125 C5.85930786 25.62486572 5.85930786 25.62486572 8.98828125 31.8828125 C9.48899334 37.36602028 9.67631041 42.27741112 7.48828125 47.3828125 C2.1995827 52.67151105 -2.39030267 54.1438262 -9.88671875 54.4453125 C-16.37481519 54.25694841 -21.8379449 52.94486635 -27.01171875 48.8828125 C-28.27734375 46.7109375 -28.27734375 46.7109375 -29.01171875 44.8828125 C-27.36171875 42.9028125 -25.71171875 40.9228125 -24.01171875 38.8828125 C-23.47804688 39.24375 -22.944375 39.6046875 -22.39453125 39.9765625 C-16.76030092 43.4857717 -11.68461737 45.3282057 -5.01171875 43.8828125 C-3.04543874 42.84361866 -3.04543874 42.84361866 -2.01171875 40.8828125 C-1.59166189 37.85777378 -1.59166189 37.85777378 -3.01171875 34.8828125 C-5.5598307 33.05532395 -8.35702017 31.97018905 -11.26171875 30.8203125 C-17.62174544 28.21945842 -22.17002797 25.80705215 -26.32421875 20.0703125 C-27.9095325 15.0261324 -27.70907232 11.22586382 -25.32421875 6.6328125 C-18.64950731 -1.30468219 -9.91414194 -3.67761945 0 0 Z " fill="#000000" transform="translate(48.01171875,222.1171875)"/>
<path d="M0 0 C4.2419111 3.0299365 6.70065658 6.76266555 7.625 11.875 C7.70647598 14.04559032 7.73252942 16.21852851 7.72265625 18.390625 C7.71943359 19.64101562 7.71621094 20.89140625 7.71289062 22.1796875 C7.70032227 24.13261719 7.70032227 24.13261719 7.6875 26.125 C7.68298828 27.44242187 7.67847656 28.75984375 7.67382812 30.1171875 C7.66204316 33.36983741 7.64559011 36.62239584 7.625 39.875 C4.655 39.875 1.685 39.875 -1.375 39.875 C-1.375 38.885 -1.375 37.895 -1.375 36.875 C-2.303125 37.535 -3.23125 38.195 -4.1875 38.875 C-9.04969893 41.64774074 -13.92298924 41.70080688 -19.375 40.875 C-22.92745497 38.99002389 -23.99905613 37.64397609 -25.75 34.0625 C-26.70370074 29.19862625 -26.26162314 25.60794523 -24 21.1875 C-18.43886027 16.28840071 -10.4335708 14.75728555 -3.375 12.875 C-3.93862302 10.82663118 -3.93862302 10.82663118 -5.375 8.875 C-10.97216859 6.77606178 -16.00342049 8.99600875 -21.375 10.875 C-22.9375 8.5625 -22.9375 8.5625 -24.375 5.875 C-23.375 2.875 -23.375 2.875 -21.44140625 1.70703125 C-14.0684553 -1.29505954 -7.6911147 -2.5637049 0 0 Z M-10.5 22.1875 C-11.52480469 22.55294922 -11.52480469 22.55294922 -12.5703125 22.92578125 C-14.71833006 23.87196467 -14.71833006 23.87196467 -16.375 26.875 C-16.09225862 30.18586259 -16.09225862 30.18586259 -14.375 32.875 C-10.42102978 33.25518944 -8.00340156 33.1958859 -4.4375 31.375 C-1.45778487 27.76322409 -1.99256715 25.46419421 -2.375 20.875 C-5.79291203 20.875 -7.43797064 21.05233702 -10.5 22.1875 Z " fill="#000000" transform="translate(305.375,235.125)"/>
<path d="M0 0 C4.2419111 3.0299365 6.70065658 6.76266555 7.625 11.875 C7.70647598 14.04559032 7.73252942 16.21852851 7.72265625 18.390625 C7.71943359 19.64101562 7.71621094 20.89140625 7.71289062 22.1796875 C7.70032227 24.13261719 7.70032227 24.13261719 7.6875 26.125 C7.68298828 27.44242187 7.67847656 28.75984375 7.67382812 30.1171875 C7.66204316 33.36983741 7.64559011 36.62239584 7.625 39.875 C4.655 39.875 1.685 39.875 -1.375 39.875 C-1.375 38.885 -1.375 37.895 -1.375 36.875 C-2.303125 37.535 -3.23125 38.195 -4.1875 38.875 C-9.04969893 41.64774074 -13.92298924 41.70080688 -19.375 40.875 C-22.92745497 38.99002389 -23.99905613 37.64397609 -25.75 34.0625 C-26.70370074 29.19862625 -26.26162314 25.60794523 -24 21.1875 C-18.43886027 16.28840071 -10.4335708 14.75728555 -3.375 12.875 C-3.93862302 10.82663118 -3.93862302 10.82663118 -5.375 8.875 C-10.97216859 6.77606178 -16.00342049 8.99600875 -21.375 10.875 C-22.9375 8.5625 -22.9375 8.5625 -24.375 5.875 C-23.375 2.875 -23.375 2.875 -21.44140625 1.70703125 C-14.0684553 -1.29505954 -7.6911147 -2.5637049 0 0 Z M-10.5 22.1875 C-11.52480469 22.55294922 -11.52480469 22.55294922 -12.5703125 22.92578125 C-14.71833006 23.87196467 -14.71833006 23.87196467 -16.375 26.875 C-16.09225862 30.18586259 -16.09225862 30.18586259 -14.375 32.875 C-10.42102978 33.25518944 -8.00340156 33.1958859 -4.4375 31.375 C-1.45778487 27.76322409 -1.99256715 25.46419421 -2.375 20.875 C-5.79291203 20.875 -7.43797064 21.05233702 -10.5 22.1875 Z " fill="#000000" transform="translate(146.375,235.125)"/>
<path d="M0 0 C4.1796989 2.8497947 7.11864324 5.98092971 8.75 10.875 C8.75 14.835 8.75 18.795 8.75 22.875 C0.5 22.875 -7.75 22.875 -16.25 22.875 C-15.26 24.855 -14.27 26.835 -13.25 28.875 C-13.25 29.535 -13.25 30.195 -13.25 30.875 C-7.39072182 32.54907948 -1.14014391 32.39503714 4.75 30.875 C5.74 32.855 6.73 34.835 7.75 36.875 C0.889824 41.17942416 -5.21396835 42.02873738 -13.25 40.875 C-18.95474417 38.75712499 -22.39134609 35.24926935 -25.25 29.875 C-27.26661541 23.51176082 -27.45504154 15.62643811 -24.6875 9.5 C-19.23322431 0.16929266 -10.28086532 -3.55876107 0 0 Z M-15.25 10.875 C-15.58 12.525 -15.91 14.175 -16.25 15.875 C-10.97 15.875 -5.69 15.875 -0.25 15.875 C0.22912126 11.08576729 0.22912126 11.08576729 -1.875 8.5625 C-7.01635767 4.90943008 -11.16193145 6.55332753 -15.25 10.875 Z " fill="#000000" transform="translate(388.25,235.125)"/>
<path d="M0 0 C3.80820673 3.47218849 4.99945864 7.59560231 5.46557617 12.57788086 C5.4420105 14.47098999 5.4420105 14.47098999 5.41796875 16.40234375 C5.41372391 17.08051651 5.40947906 17.75868927 5.40510559 18.45741272 C5.38847941 20.59703402 5.35086174 22.73566947 5.3125 24.875 C5.29743222 26.33657482 5.2837475 27.79816458 5.27148438 29.25976562 C5.23862977 32.81932397 5.18696241 36.37831556 5.125 39.9375 C1.825 39.9375 -1.475 39.9375 -4.875 39.9375 C-4.89481934 39.10500732 -4.91463867 38.27251465 -4.93505859 37.41479492 C-5.01320742 34.322735 -5.09990206 31.23106617 -5.19238281 28.1394043 C-5.24944092 26.1445464 -5.29664442 24.1494146 -5.34375 22.15429688 C-5.38242188 20.90068359 -5.42109375 19.64707031 -5.4609375 18.35546875 C-5.50806885 16.61946411 -5.50806885 16.61946411 -5.55615234 14.84838867 C-5.66971033 11.74622972 -5.66971033 11.74622972 -7.875 8.9375 C-11.10019192 8.51682279 -13.12691323 8.54830184 -16.03222656 10.05981445 C-18.66331437 12.74074931 -18.41722732 14.64555938 -18.484375 18.35546875 C-18.51660156 19.60908203 -18.54882812 20.86269531 -18.58203125 22.15429688 C-18.60330078 24.11979492 -18.60330078 24.11979492 -18.625 26.125 C-18.65315981 27.46032536 -18.68308729 28.7956147 -18.71484375 30.13085938 C-18.78565116 33.39980149 -18.83829633 36.66802579 -18.875 39.9375 C-22.175 39.9375 -25.475 39.9375 -28.875 39.9375 C-28.875 26.7375 -28.875 13.5375 -28.875 -0.0625 C-26.235 -0.0625 -23.595 -0.0625 -20.875 -0.0625 C-20.875 1.2575 -20.875 2.5775 -20.875 3.9375 C-20.32972656 3.5765625 -19.78445312 3.215625 -19.22265625 2.84375 C-12.68054063 -1.18216731 -7.37839287 -2.72679737 0 0 Z " fill="#000000" transform="translate(100.875,235.0625)"/>
<path d="M0 0 C1.60294922 0.04060547 1.60294922 0.04060547 3.23828125 0.08203125 C4.04652344 0.11683594 4.85476562 0.15164062 5.6875 0.1875 C6.45036236 3.59495188 6.80417279 5.83748162 5.6875 9.1875 C3.0475 9.1875 0.4075 9.1875 -2.3125 9.1875 C-2.9725 12.1575 -3.6325 15.1275 -4.3125 18.1875 C-1.6725 18.1875 0.9675 18.1875 3.6875 18.1875 C3.6875 20.8275 3.6875 23.4675 3.6875 26.1875 C1.0475 26.1875 -1.5925 26.1875 -4.3125 26.1875 C-4.3125 36.7475 -4.3125 47.3075 -4.3125 58.1875 C-7.6125 58.1875 -10.9125 58.1875 -14.3125 58.1875 C-14.3125 47.6275 -14.3125 37.0675 -14.3125 26.1875 C-15.9625 26.1875 -17.6125 26.1875 -19.3125 26.1875 C-19.3125 23.5475 -19.3125 20.9075 -19.3125 18.1875 C-17.6625 18.1875 -16.0125 18.1875 -14.3125 18.1875 C-14.4053125 16.4240625 -14.4053125 16.4240625 -14.5 14.625 C-14.48439826 10.22530829 -13.51145455 7.05462697 -11.3125 3.1875 C-7.48714077 0.27807185 -4.74986857 -0.15658907 0 0 Z " fill="#000000" transform="translate(237.3125,216.8125)"/>
<path d="M0 0 C3.3 0 6.6 0 10 0 C10 16.5 10 33 10 50 C10.99 50 11.98 50 13 50 C13.33 52.64 13.66 55.28 14 58 C12.41906283 58.1357675 10.83473048 58.23234745 9.25 58.3125 C8.36828125 58.37050781 7.4865625 58.42851562 6.578125 58.48828125 C4 58 4 58 1.86328125 56.22460938 C-1.00180417 51.26626973 -0.49305951 46.54204785 -0.390625 40.91796875 C-0.38496521 39.74865311 -0.37930542 38.57933746 -0.37347412 37.37458801 C-0.35110936 33.64513975 -0.30091 29.9166572 -0.25 26.1875 C-0.22993525 23.65691493 -0.21168445 21.12631478 -0.1953125 18.59570312 C-0.15124378 12.39676414 -0.08221302 6.19854572 0 0 Z " fill="#000000" transform="translate(254,218)"/>
<path d="M0 0 C1.27351308 2.54702616 0.80191925 3.4282945 0.0625 6.125 C-0.13214844 6.84945312 -0.32679688 7.57390625 -0.52734375 8.3203125 C-0.68332031 8.87460938 -0.83929688 9.42890625 -1 10 C-2.051875 9.896875 -3.10375 9.79375 -4.1875 9.6875 C-7.91077693 9.99268663 -9.43824751 10.34484545 -11.9675293 13.06323242 C-14.39530499 17.61739287 -13.7881309 23.27892757 -13.8125 28.3125 C-13.83763672 29.53001953 -13.86277344 30.74753906 -13.88867188 32.00195312 C-13.94748901 35.00162687 -13.98381039 37.99984298 -14 41 C-17.3 41 -20.6 41 -24 41 C-24 27.8 -24 14.6 -24 1 C-21.36 1 -18.72 1 -16 1 C-15.67 2.65 -15.34 4.3 -15 6 C-14.5875 5.566875 -14.175 5.13375 -13.75 4.6875 C-9.07692435 0.18131991 -6.45118631 -0.67907224 0 0 Z " fill="#000000" transform="translate(354,234)"/>
<path d="M0 0 C0.99 0 1.98 0 3 0 C3 1.65 3 3.3 3 5 C4.65 5 6.3 5 8 5 C8 6.32 8 7.64 8 9 C6.35 9 4.7 9 3 9 C3.33 12.63 3.66 16.26 4 20 C5.65 20.66 7.3 21.32 9 22 C8.67 22.99 8.34 23.98 8 25 C5.1875 25.25 5.1875 25.25 2 25 C-0.40978578 22.67946555 -0.96733394 21.33624266 -1.29296875 17.984375 C-1.25816406 16.91703125 -1.22335938 15.8496875 -1.1875 14.75 C-1.16042969 13.67234375 -1.13335937 12.5946875 -1.10546875 11.484375 C-1.07066406 10.66453125 -1.03585938 9.8446875 -1 9 C-2.3303125 9.2784375 -2.3303125 9.2784375 -3.6875 9.5625 C-6.85178811 9.98042484 -8.94839642 9.80777742 -12 9 C-12.33 9.99 -12.66 10.98 -13 12 C-11.88625 12.1546875 -11.88625 12.1546875 -10.75 12.3125 C-7.69891759 13.0752706 -6.14596923 13.69507009 -4 16 C-3.5 19 -3.5 19 -4 22 C-5.4375 23.9375 -5.4375 23.9375 -8 25 C-11.05243955 24.93695478 -13.99668939 24.53263842 -17 24 C-17.33 22.68 -17.66 21.36 -18 20 C-15.45297384 18.72648692 -14.5717055 19.19808075 -11.875 19.9375 C-10.78832031 20.22947266 -10.78832031 20.22947266 -9.6796875 20.52734375 C-9.12539062 20.68332031 -8.57109375 20.83929688 -8 21 C-9.35908008 16.92275976 -11.54118142 16.35182505 -15.1875 14.37890625 C-17 13 -17 13 -17.8203125 10.9765625 C-18 9 -18 9 -16.875 6.8125 C-14.53077855 4.54641926 -13.24296914 4.1544271 -10 4 C-8.327767 4.65257873 -6.66072849 5.31867549 -5 6 C-2.75759218 5.71260075 -2.75759218 5.71260075 -1 5 C-0.67 3.35 -0.34 1.7 0 0 Z " fill="#000000" transform="translate(204,306)"/>
<path d="M0 0 C4.19002891 1.15587004 5.65101668 0.41297185 9.625 -1 C11.9375 -0.25 11.9375 -0.25 13.625 1 C15.27997356 4.30994713 14.72584335 7.99123 14.6875 11.625 C14.68298828 12.42679687 14.67847656 13.22859375 14.67382812 14.0546875 C14.66203168 16.03649006 14.64409605 18.01825433 14.625 20 C13.305 20 11.985 20 10.625 20 C10.295 15.05 9.965 10.1 9.625 5 C8.305 5 6.985 5 5.625 5 C4.965 5 4.305 5 3.625 5 C3.625 9.95 3.625 14.9 3.625 20 C2.305 20 0.985 20 -0.375 20 C-0.705 15.05 -1.035 10.1 -1.375 5 C-2.365 4.67 -3.355 4.34 -4.375 4 C-5.365 4.495 -5.365 4.495 -6.375 5 C-6.84501033 8.27555608 -6.84501033 8.27555608 -7 12.0625 C-7.07476562 13.35285156 -7.14953125 14.64320313 -7.2265625 15.97265625 C-7.27554687 16.97167969 -7.32453125 17.97070312 -7.375 19 C-8.695 19.33 -10.015 19.66 -11.375 20 C-11.375 13.4 -11.375 6.8 -11.375 0 C-10.055 0.33 -8.735 0.66 -7.375 1 C-6.776875 0.649375 -6.17875 0.29875 -5.5625 -0.0625 C-3.375 -1 -3.375 -1 0 0 Z " fill="#000000" transform="translate(325.375,311)"/>
<path d="M0 0 C4.19002891 1.15587004 5.65101668 0.41297185 9.625 -1 C11.9375 -0.25 11.9375 -0.25 13.625 1 C15.27997356 4.30994713 14.72584335 7.99123 14.6875 11.625 C14.68298828 12.42679687 14.67847656 13.22859375 14.67382812 14.0546875 C14.66203168 16.03649006 14.64409605 18.01825433 14.625 20 C13.305 20 11.985 20 10.625 20 C10.295 15.05 9.965 10.1 9.625 5 C8.305 5 6.985 5 5.625 5 C4.965 5 4.305 5 3.625 5 C3.625 9.95 3.625 14.9 3.625 20 C2.305 20 0.985 20 -0.375 20 C-0.705 15.05 -1.035 10.1 -1.375 5 C-2.365 4.67 -3.355 4.34 -4.375 4 C-5.365 4.495 -5.365 4.495 -6.375 5 C-6.84501033 8.27555608 -6.84501033 8.27555608 -7 12.0625 C-7.07476562 13.35285156 -7.14953125 14.64320313 -7.2265625 15.97265625 C-7.27554688 16.97167969 -7.32453125 17.97070312 -7.375 19 C-8.695 19.33 -10.015 19.66 -11.375 20 C-11.375 13.4 -11.375 6.8 -11.375 0 C-10.055 0.33 -8.735 0.66 -7.375 1 C-6.776875 0.649375 -6.17875 0.29875 -5.5625 -0.0625 C-3.375 -1 -3.375 -1 0 0 Z " fill="#000000" transform="translate(167.375,311)"/>
<path d="M0 0 C1.32 0 2.64 0 4 0 C4.33 2.97 4.66 5.94 5 9 C5.721875 8.773125 6.44375 8.54625 7.1875 8.3125 C10.83753379 7.90694069 12.14495124 8.76225908 15 11 C17.57073939 14.42765252 17.43037452 17.83971296 17 22 C15.4375 25.375 15.4375 25.375 13 28 C8.61128146 29.07793087 4.49331566 29 0 29 C0 19.43 0 9.86 0 0 Z M4 14 C3.59785243 16.4010441 3.59785243 16.4010441 3.75 19.0625 C3.76546875 19.96097656 3.7809375 20.85945313 3.796875 21.78515625 C3.75940885 23.97259999 3.75940885 23.97259999 5 25 C7.45809998 25.2500773 7.45809998 25.2500773 10 25 C12.18939909 23.21892751 12.18939909 23.21892751 12.265625 20.90625 C12.26046875 20.1121875 12.2553125 19.318125 12.25 18.5 C12.25515625 17.7059375 12.2603125 16.911875 12.265625 16.09375 C12.18939909 13.78107249 12.18939909 13.78107249 10 12 C6.81509993 11.7226499 6.81509993 11.7226499 4 14 Z " fill="#000000" transform="translate(77,302)"/>
<path d="M0 0 C3.49087353 3.72963611 3.50095953 6.7321569 3.36328125 11.65234375 C3 14 3 14 1.125 16.5625 C-2.45873945 18.98679433 -4.63716666 19.51327451 -9 19 C-11.57285724 16.827365 -13.48996919 15.02006162 -15 12 C-15.04195824 7.65312674 -14.76967338 4.06161845 -12.1875 0.5 C-7.67773767 -2.59240845 -5.01163183 -2.23923975 0 0 Z M-8.6875 3 C-10.8482514 6.29257356 -10.30816878 9.11707331 -10 13 C-8.17084359 15.23845015 -8.17084359 15.23845015 -5.5 15.3125 C-4.675 15.209375 -3.85 15.10625 -3 15 C-0.53675931 11.30513897 -0.61008312 9.36706908 -1 5 C-2.16884106 2.99515224 -2.16884106 2.99515224 -4 2 C-6.89677829 1.7450988 -6.89677829 1.7450988 -8.6875 3 Z " fill="#000000" transform="translate(306,312)"/>
<path d="M0 0 C2.71904738 3.31014464 2 5.40059851 2 10 C-1.96 10 -5.92 10 -10 10 C-9.34 11.32 -8.68 12.64 -8 14 C-5.36 14 -2.72 14 0 14 C0 15.32 0 16.64 0 18 C-3.13871188 19.56935594 -5.53855822 19.35201103 -9 19 C-11.63016161 16.8272578 -13.47336894 15.05326212 -15 12 C-15.04227317 7.62049912 -14.78687799 4.04917065 -12.125 0.5 C-7.6629793 -2.64966167 -4.92944635 -1.88215224 0 0 Z M-8 2 C-8.66 2.66 -9.32 3.32 -10 4 C-10 4.99 -10 5.98 -10 7 C-7.36 7 -4.72 7 -2 7 C-2.33 5.68 -2.66 4.36 -3 3 C-5.39719432 2.32041397 -5.39719432 2.32041397 -8 2 Z " fill="#000000" transform="translate(229,312)"/>
<path d="M0 0 C2.35546875 0.15234375 2.35546875 0.15234375 5 1 C6.91665101 4.52026733 7.80496831 8.14934233 9 12 C10.65 8.04 12.3 4.08 14 0 C15.32 0 16.64 0 18 0 C16.33642079 5.86986487 14.48316134 11.66775871 12.5 17.4375 C12.0978125 18.61183594 11.695625 19.78617187 11.28125 20.99609375 C10.10707443 23.74896269 9.33363948 25.19870268 7 27 C4.9375 27.75 4.9375 27.75 3 28 C2.34 27.67 1.68 27.34 1 27 C1 26.01 1 25.02 1 24 C2.32 23.67 3.64 23.34 5 23 C6.45229003 17.6555727 5.25323494 14.13001787 3.0625 9.25 C0 2.17433481 0 2.17433481 0 0 Z " fill="#000000" transform="translate(95,311)"/>
<path d="M0 0 C2.25 1.1875 2.25 1.1875 3.25 2.1875 C3.33631874 3.53017413 3.35706473 4.87724322 3.34765625 6.22265625 C3.34443359 7.03154297 3.34121094 7.84042969 3.33789062 8.67382812 C3.32951172 9.52396484 3.32113281 10.37410156 3.3125 11.25 C3.30798828 12.10400391 3.30347656 12.95800781 3.29882812 13.83789062 C3.28700373 15.95445663 3.26906769 18.07098685 3.25 20.1875 C1.93 19.8575 0.61 19.5275 -0.75 19.1875 C-0.75 14.2375 -0.75 9.2875 -0.75 4.1875 C-2.73 4.5175 -4.71 4.8475 -6.75 5.1875 C-7.08 9.8075 -7.41 14.4275 -7.75 19.1875 C-9.07 19.5175 -10.39 19.8475 -11.75 20.1875 C-11.75 13.5875 -11.75 6.9875 -11.75 0.1875 C-10.43 0.5175 -9.11 0.8475 -7.75 1.1875 C-6.5434375 0.6615625 -6.5434375 0.6615625 -5.3125 0.125 C-2.75 -0.8125 -2.75 -0.8125 0 0 Z " fill="#000000" transform="translate(256.75,310.8125)"/>
<path d="M0 0 C0.94875 0.04125 1.8975 0.0825 2.875 0.125 C3.205 0.785 3.535 1.445 3.875 2.125 C3.545 2.785 3.215 3.445 2.875 4.125 C0.8125 4.75 0.8125 4.75 -1.125 5.125 C-1.455 6.445 -1.785 7.765 -2.125 9.125 C-0.805 9.125 0.515 9.125 1.875 9.125 C1.875 10.445 1.875 11.765 1.875 13.125 C0.555 13.125 -0.765 13.125 -2.125 13.125 C-2.125 18.405 -2.125 23.685 -2.125 29.125 C-3.445 29.125 -4.765 29.125 -6.125 29.125 C-6.125 23.845 -6.125 18.565 -6.125 13.125 C-6.785 13.125 -7.445 13.125 -8.125 13.125 C-8.125 11.805 -8.125 10.485 -8.125 9.125 C-7.465 9.125 -6.805 9.125 -6.125 9.125 C-6.00125 8.01125 -5.8775 6.8975 -5.75 5.75 C-4.97599959 1.26079763 -4.63187427 0.18527497 0 0 Z " fill="#000000" transform="translate(130.125,301.875)"/>
<path d="M0 0 C-0.33 1.32 -0.66 2.64 -1 4 C-1.94875 3.79375 -2.8975 3.5875 -3.875 3.375 C-5.421875 3.189375 -5.421875 3.189375 -7 3 C-9.1702792 4.7587364 -9.1702792 4.7587364 -9.23046875 6.91015625 C-9.53754032 10.76685951 -9.53754032 10.76685951 -8 14 C-5.32941149 14.14115161 -2.67567762 14.04247107 0 14 C0 15.32 0 16.64 0 18 C-3.13871188 19.56935594 -5.53855822 19.35201103 -9 19 C-11.63016161 16.8272578 -13.47336894 15.05326212 -15 12 C-15.04195824 7.65312674 -14.76967338 4.06161845 -12.1875 0.5 C-7.5840764 -2.65663332 -5.1597904 -1.99355538 0 0 Z " fill="#000000" transform="translate(289,312)"/>
<path d="M0 0 C1.32 0 2.64 0 4 0 C4.02505615 0.73637695 4.0501123 1.47275391 4.07592773 2.23144531 C4.19204273 5.57113378 4.31469918 8.91055097 4.4375 12.25 C4.47681641 13.40886719 4.51613281 14.56773437 4.55664062 15.76171875 C4.59853516 16.87675781 4.64042969 17.99179687 4.68359375 19.140625 C4.72025146 20.16704102 4.75690918 21.19345703 4.79467773 22.25097656 C4.97282128 24.63610887 5.32777363 26.71299499 6 29 C4.33388095 29.042721 2.66617115 29.04063832 1 29 C0 28 0 28 -0.11352539 25.31616211 C-0.10828857 24.14835205 -0.10305176 22.98054199 -0.09765625 21.77734375 C-0.09443359 20.51728516 -0.09121094 19.25722656 -0.08789062 17.95898438 C-0.07953403 16.61848891 -0.07106907 15.27799412 -0.0625 13.9375 C-0.0574866 12.59310058 -0.05292342 11.2486994 -0.04882812 9.90429688 C-0.03699488 6.60282059 -0.02050971 3.30143197 0 0 Z " fill="#000000" transform="translate(146,302)"/>
<path d="M0 0 C1.32 0 2.64 0 4 0 C4 6.27 4 12.54 4 19 C2.68 19.33 1.36 19.66 0 20 C0 13.4 0 6.8 0 0 Z " fill="#000000" transform="translate(235,311)"/>
<path d="M0 0 C1.32 0 2.64 0 4 0 C4 6.27 4 12.54 4 19 C2.68 19.33 1.36 19.66 0 20 C0 13.4 0 6.8 0 0 Z " fill="#000000" transform="translate(136,311)"/>
<path d="M0 0 C2.0625 0.4375 2.0625 0.4375 4 1 C4 2.32 4 3.64 4 5 C2.68 5.33 1.36 5.66 0 6 C-0.38218767 4.34385343 -0.71395102 2.67542976 -1 1 C-0.67 0.67 -0.34 0.34 0 0 Z " fill="#000000" transform="translate(266,325)"/>
<path d="M0 0 C1.98 0.495 1.98 0.495 4 1 C4 2.32 4 3.64 4 5 C2.35 4.67 0.7 4.34 -1 4 C-0.67 2.68 -0.34 1.36 0 0 Z " fill="#000000" transform="translate(235,303)"/>
<path d="M0 0 C1.98 0.495 1.98 0.495 4 1 C4 2.32 4 3.64 4 5 C2.35 4.67 0.7 4.34 -1 4 C-0.67 2.68 -0.34 1.36 0 0 Z " fill="#000000" transform="translate(136,303)"/>
</svg>
