<?xml version="1.0" encoding="UTF-8"?>
<svg version="1.1" xmlns="http://www.w3.org/2000/svg" width="400" height="205">
<path d="M0 0 C0.33 0.99 0.66 1.98 1 3 C0.12827148 3.11480713 -0.74345703 3.22961426 -1.64160156 3.34790039 C-54.82006036 10.43674548 -106.98252911 22.32808047 -158 39 C-158.85309753 39.27797424 -159.70619507 39.55594849 -160.58514404 39.84234619 C-167.08328298 41.96112301 -173.5752032 44.09826142 -180.0625 46.25 C-180.92683655 46.5366452 -181.7911731 46.82329041 -182.68170166 47.11862183 C-190.19582218 49.61796148 -197.70437929 52.11868672 -205.11669922 54.90820312 C-205.95623642 55.22384216 -206.79577362 55.5394812 -207.66075134 55.86468506 C-209.23683951 56.46184321 -210.81033592 57.06591522 -212.38038635 57.67877197 C-222.56925497 61.55349122 -232.52254374 62.38070693 -243.359375 62.859375 C-244.79219205 62.92894615 -246.22496609 62.99940762 -247.65769958 63.07067871 C-250.73937091 63.22319775 -253.82118323 63.37213529 -256.90316772 63.51818848 C-265.26085469 63.9157991 -273.61697598 64.34365907 -281.97265625 64.78125 C-282.84887949 64.82707466 -283.72510273 64.87289932 -284.62787819 64.92011261 C-309.68611644 66.24123308 -334.71162513 68.05563585 -359.73825741 69.86827087 C-363.32766351 70.12803141 -366.917186 70.38616695 -370.50670052 70.64442444 C-372.97043503 70.82287142 -375.43388378 71.00491447 -377.89732361 71.18737793 C-379.39402411 71.29593686 -380.89073283 71.40438259 -382.38745117 71.51269531 C-384.31315193 71.65448212 -384.31315193 71.65448212 -386.27775574 71.7991333 C-390.19954567 72.01076826 -394.07355338 72.03393265 -398 72 C-398.33 71.34 -398.66 70.68 -399 70 C-384.34820933 64.88676233 -369.44221604 60.5787158 -354.5625 56.1875 C-353.87989357 55.98573906 -353.19728714 55.78397812 -352.49399567 55.57610321 C-335.83256635 50.65169414 -319.18425963 45.78798077 -302.27636719 41.76977539 C-292.45228124 39.4238537 -282.76823534 36.69124797 -273.05999756 33.90994263 C-229.54581606 21.47821695 -185.21498377 12.68600355 -140.375 6.6875 C-139.45340088 6.56403198 -138.53180176 6.44056396 -137.58227539 6.31335449 C-118.36363748 3.76207815 -99.11542557 1.83834592 -79.75 0.875 C-78.92355988 0.83264221 -78.09711975 0.79028442 -77.24563599 0.74664307 C-51.52187025 -0.52986418 -25.74634776 -0.18352349 0 0 Z " fill="#000000" transform="translate(399,133)"/>
<path d="M0 0 C20.60439473 19.52387494 35.46119901 48.26569392 36.77734375 76.8203125 C36.78394104 79.86166419 36.73810039 82.88412029 36.59765625 85.921875 C35.93765625 86.251875 35.27765625 86.581875 34.59765625 86.921875 C34.26725342 85.84425903 34.26725342 85.84425903 33.93017578 84.74487305 C27.57619183 64.26348366 20.47564381 45.51619465 6.59765625 28.921875 C5.91445313 28.07625 5.23125 27.230625 4.52734375 26.359375 C-16.98063926 0.9624947 -50.66257358 -14.33818298 -83.40234375 -17.078125 C-120.67638515 -19.50433149 -154.91901102 -6.44009409 -182.98657227 17.85571289 C-202.43049415 35.2382003 -215.09252883 57.98148145 -221.48828125 83.125 C-221.66391602 83.81263428 -221.83955078 84.50026855 -222.02050781 85.20874023 C-222.50022516 87.12599209 -222.95592476 89.04920696 -223.41015625 90.97265625 C-224.40234375 93.921875 -224.40234375 93.921875 -227.40234375 95.921875 C-228.89691347 68.18930355 -218.74036053 36.03969091 -200.35546875 15.0390625 C-199.7109375 14.34039062 -199.06640625 13.64171875 -198.40234375 12.921875 C-197.6959375 12.09945312 -196.98953125 11.27703125 -196.26171875 10.4296875 C-176.73840821 -12.02894596 -152.70254921 -24.91519213 -124.40234375 -33.078125 C-123.33064941 -33.39185059 -123.33064941 -33.39185059 -122.23730469 -33.71191406 C-78.82006617 -45.79574826 -32.71953505 -28.30372788 0 0 Z " fill="#000000" transform="translate(305.40234375,36.078125)"/>
</svg>
